<?xml version="1.0" encoding="utf-8"?>
<!-- Svg Vector Icons : http://www.onlinewebfonts.com/icon -->
<!DOCTYPE svg PUBLIC "-//W3C//DTD SVG 1.1//EN" "http://www.w3.org/Graphics/SVG/1.1/DTD/svg11.dtd">
<svg version="1.1" xmlns="http://www.w3.org/2000/svg" xmlns:xlink="http://www.w3.org/1999/xlink" x="0px" y="0px" viewBox="0 0 256 256" enable-background="new 0 0 256 256" xml:space="preserve">
<metadata> Svg Vector Icons : http://www.onlinewebfonts.com/icon </metadata>
<g><g><path fill="#000000" d="M128,10C62.8,10,10,62.8,10,128c0,65.2,52.8,118,118,118c65.2,0,118-52.8,118-118C246,62.8,193.2,10,128,10z M128,227.8c-55.2,0-99.9-44.7-99.9-99.8c0-55.1,44.7-99.8,99.9-99.8c55.1,0,99.8,44.7,99.8,99.8C227.8,183.1,183.1,227.8,128,227.8z"/><path fill="#000000" d="M126.9,46.7c-42.7,0-77.4,34.6-77.4,77.4c0,12.4,2.9,24.5,8.6,35.5c-1-5.1-1.5-10.4-1.5-15.8c0-41.5,30.7-75.3,68.8-76.2c12.1-0.3,23.8,3.2,33.7,10l24.2-6.4C169.2,56.1,149.1,46.7,126.9,46.7L126.9,46.7z"/><path fill="#000000" d="M189.1,83.8l-47.4,14.2c-8.4-4.4-18.4-5.6-28.1-2.6c-19.4,6-30.3,26.7-24.3,46.1c6,19.4,26.7,30.3,46.1,24.3c16.2-5,26.5-20.3,25.9-36.5l33.9-35.7L189.1,83.8z M133.7,145.3c-8.2,5.1-18.9,2.6-24-5.5c-5.1-8.2-2.6-18.9,5.5-24c8.2-5.1,18.9-2.6,24,5.5S141.9,140.2,133.7,145.3z"/></g></g>
</svg>