<svg xmlns="http://www.w3.org/2000/svg" viewBox="0 0 254 254"><defs><style>.cls-1{fill:#fff;}.cls-2,.cls-3,.cls-4{fill:none;stroke-miterlimit:10;}.cls-2{stroke:#ff4848;stroke-width:17px;}.cls-2,.cls-4{stroke-linecap:round;}.cls-3{stroke:#d5d5d5;stroke-width:7px;}.cls-4{stroke:#221f1f;stroke-width:10.26px;}.cls-5{fill:#221f1f;}</style></defs><title>Fuelio_web_icon</title><g id="Layer_1" data-name="Layer 1"><path class="cls-1" d="M241.31,88.2a120.73,120.73,0,0,0-228.62,0A281.56,281.56,0,0,0,127,112.26,281.56,281.56,0,0,0,241.31,88.2Z"/><line class="cls-2" x1="103.86" y1="59.83" x2="122.26" y2="113.26"/><line class="cls-3" x1="127" y1="23.01" x2="127" y2="40.24"/><line class="cls-3" x1="211.31" y1="67.31" x2="197.58" y2="76.94"/><line class="cls-3" x1="42.69" y1="67.31" x2="56.42" y2="76.94"/><path class="cls-4" d="M247.68,127a120.55,120.55,0,1,1-6.37-38.8A120.68,120.68,0,0,1,247.68,127Z"/><path class="cls-5" d="M241.31,88.2A281.56,281.56,0,0,1,127,112.26,281.56,281.56,0,0,1,12.69,88.2a120.68,120.68,0,1,0,228.62,0Z"/><path class="cls-1" d="M159.47,157.85l.06,0-13.12-13.08-3.73,3.73,7.43,7.43a8.79,8.79,0,0,0,3.13,17,8.6,8.6,0,0,0,3.52-.74v25.38a3.52,3.52,0,1,1-7,0V181.68a7,7,0,0,0-7-7h-3.52V150a7,7,0,0,0-7-7H111a7,7,0,0,0-7,7v56.32h35.2v-26.4h5.28v17.6a8.8,8.8,0,1,0,17.6,0V164.08A8.81,8.81,0,0,0,159.47,157.85Zm-25.35,9.75H109V150h25.12Zm19.12,0a3.52,3.52,0,1,1,3.52-3.52A3.53,3.53,0,0,1,153.24,167.6Z"/></g></svg>